<svg xmlns="http://www.w3.org/2000/svg" viewBox="0 0 512 512" role="img" aria-label="Secura logo">
  <defs>
    <linearGradient id="g" x1="0" y1="0" x2="1" y2="1">
      <stop offset="0%" stop-color="#0C3CFF"/>
      <stop offset="100%" stop-color="#39B7FF"/>
    </linearGradient>
  </defs>
  <rect width="512" height="512" rx="128" fill="url(#g)"/>
  <path d="M256 90l140 48v112c0 103-56 186-140 232-84-46-140-129-140-232V138l140-48z" fill="rgba(255,255,255,0.92)"/>
  <path d="M256 190c-34 0-60 26-60 60v34h120v-34c0-34-26-60-60-60zm0 32c16 0 28 12 28 28v18h-56v-18c0-16 12-28 28-28z" fill="#0C3CFF"/>
</svg>
